<svg width="100" height="100" viewBox="0 0 100 100" fill="none" xmlns="http://www.w3.org/2000/svg">
	<path d="M0 12.5C0 5.59644 5.59644 0 12.5 0H87.5C94.4036 0 100 5.59644 100 12.5V87.5C100 94.4036 94.4036 100 87.5 100H12.5C5.59644 100 0 94.4036 0 87.5V12.5Z" fill="url(#paint0_radial_177_14)"/>
	<path fill-rule="evenodd" clip-rule="evenodd" d="M1.81973 6.00518C1.85063 5.95435 1.88191 5.90373 1.91356 5.85332C2.22319 5.39779 2.51047 4.99329 2.78957 4.62862C2.47213 5.0202 2.17978 5.42928 1.91356 5.85332C1.88079 5.90153 1.84779 5.95028 1.8145 5.99965L1.81973 6.00518Z" fill="#00C2FF"/>
	<path d="M16.5907 12.4492L7 1.27502L6.98645 1.28166C5.7662 1.88136 4.64076 2.68157 3.66116 3.66117C3.35262 3.96971 3.06186 4.29273 2.78957 4.62862C2.51047 4.99329 2.22319 5.39779 1.91356 5.85332C1.88191 5.90373 1.85063 5.95435 1.81973 6.00518L11.9717 16.743C11.5811 17.6757 11.379 18.6766 11.3771 19.6878C11.3751 20.699 11.5733 21.7006 11.9603 22.6349C12.3472 23.5691 12.9153 24.4175 13.6317 25.1312C14.3481 25.8449 15.1987 26.4098 16.1344 26.7932V54.2499C14.5125 54.9132 13.167 56.1124 12.3221 57.6475C11.4772 59.1826 11.1839 60.9609 11.4912 62.686C11.7985 64.4111 12.6877 65.9787 14.0107 67.1277C15.3338 68.2766 17.0106 68.9375 18.7618 69C20.5129 69.0625 22.2327 68.523 23.6343 67.4714C25.0359 66.4197 26.0347 64.9195 26.4643 63.2207C26.8939 61.5219 26.7282 59.7272 25.9949 58.1358C25.2617 56.5443 24.0051 55.2522 22.4347 54.4749V27.2682L32.7664 37.6059C32.0862 39.2455 31.9965 41.0705 32.5124 42.769C33.0284 44.4675 34.1181 45.9342 35.5953 46.9185C37.0726 47.9028 38.8458 48.3437 40.6121 48.1659C42.3783 47.9881 44.028 47.2026 45.2794 45.9435C46.5156 44.7216 47.2988 43.1151 47.5 41.3887C47.7012 39.6622 47.3086 37.9187 46.3866 36.4452C45.4647 34.9717 44.0684 33.8561 42.4277 33.2821C40.7871 32.708 38.9999 32.7098 37.3603 33.287L26.2786 22.1993C26.7504 20.846 26.8322 19.3874 26.5148 17.9898C26.1973 16.5922 25.4933 15.3121 24.4831 14.2954C23.473 13.2787 22.1973 12.5665 20.8018 12.2401C19.4062 11.9136 17.947 11.9861 16.5907 12.4492Z" fill="#00C2FF"/>
	<path d="M51.125 23.5H83.625C84.4538 23.5 85.2487 23.8292 85.8347 24.4153C86.4208 25.0013 86.75 25.7962 86.75 26.625C86.75 27.4538 86.4208 28.2487 85.8347 28.8347C85.2487 29.4208 84.4538 29.75 83.625 29.75H51.125C50.2962 29.75 49.5013 29.4208 48.9153 28.8347C48.3292 28.2487 48 27.4538 48 26.625C48 25.7962 48.3292 25.0013 48.9153 24.4153C49.5013 23.8292 50.2962 23.5 51.125 23.5Z" fill="#00C2FF"/>
	<path d="M56 42.125C56 41.2962 56.3292 40.5013 56.9153 39.9153C57.5013 39.3292 58.2962 39 59.125 39H83.625C84.4538 39 85.2487 39.3292 85.8347 39.9153C86.4208 40.5013 86.75 41.2962 86.75 42.125C86.75 42.9538 86.4208 43.7487 85.8347 44.3347C85.2487 44.9208 84.4538 45.25 83.625 45.25H59.125C58.2962 45.25 57.5013 44.9208 56.9153 44.3347C56.3292 43.7487 56 42.9538 56 42.125Z" fill="#00C2FF"/>
	<path d="M40.125 54.5H83.625C84.4538 54.5 85.2487 54.8292 85.8347 55.4153C86.4208 56.0013 86.75 56.7962 86.75 57.625C86.75 58.4538 86.4208 59.2487 85.8347 59.8347C85.2487 60.4208 84.4538 60.75 83.625 60.75H40.125C39.2962 60.75 38.5013 60.4208 37.9153 59.8347C37.3292 59.2487 37 58.4538 37 57.625C37 56.7962 37.3292 56.0013 37.9153 55.4153C38.5013 54.8292 39.2962 54.5 40.125 54.5Z" fill="#00C2FF"/>
	<path d="M83.875 70C84.7038 70 85.4987 70.3292 86.0847 70.9153C86.6708 71.5013 87 72.2962 87 73.125C87 73.9538 86.6708 74.7487 86.0847 75.3347C85.4987 75.9208 84.7038 76.25 83.875 76.25H35.125C34.2962 76.25 33.5013 75.9208 32.9153 75.3347C32.3292 74.7487 32 73.9538 32 73.125C32 72.2962 32.3292 71.5013 32.9153 70.9153C33.5013 70.3292 34.2962 70 35.125 70H83.875Z" fill="#00C2FF"/>
	<defs>
		<radialGradient id="paint0_radial_177_14" cx="0" cy="0" r="1" gradientUnits="userSpaceOnUse" gradientTransform="translate(105.126 105.062) rotate(-135.318) scale(152.968 224.788)">
		<stop stop-color="#081C24"/>
		<stop offset="1" stop-color="#0A0A0A"/>
		</radialGradient>
	</defs>
</svg>