<svg width="458" height="241" viewBox="0 0 458 241" fill="none" xmlns="http://www.w3.org/2000/svg">
<g filter="url(#filter0_i_221_11)">
<path d="M43.0283 30.4753C48.0779 28.7515 53.5105 28.4818 58.7061 29.697C63.9016 30.9122 68.6509 33.5633 72.4117 37.3478C76.1726 41.1322 78.7935 45.8975 79.9755 51.0999C81.1575 56.3023 80.8528 61.7321 79.0963 66.7696L120.353 108.043C126.457 105.894 133.111 105.887 139.219 108.024C145.327 110.161 150.526 114.314 153.958 119.799C157.39 125.284 158.852 131.774 158.103 138.201C157.354 144.627 154.438 150.607 149.836 155.156C145.177 159.842 139.035 162.766 132.459 163.428C125.884 164.09 119.282 162.449 113.782 158.785C108.282 155.121 104.226 149.661 102.305 143.339C100.384 137.016 100.718 130.223 103.25 124.119L64.7855 85.638V186.913C70.6321 189.807 75.3103 194.616 78.0402 200.541C80.7701 206.465 81.3868 213.145 79.7876 219.469C78.1883 225.792 74.4697 231.377 69.2515 235.292C64.0333 239.206 57.6308 241.215 51.1112 240.982C44.5916 240.749 38.3488 238.289 33.4232 234.012C28.4976 229.735 25.1869 223.9 24.0429 217.478C22.8989 211.057 23.9907 204.437 27.1363 198.723C30.282 193.009 35.2914 188.545 41.3296 186.076V83.8698C37.8459 82.4426 34.6792 80.34 32.012 77.6834C29.3448 75.0267 27.23 71.8685 25.7893 68.3908C24.3487 64.9131 23.6107 61.1847 23.6181 57.4205C23.6254 53.6563 24.3779 49.9308 25.832 46.4587L0 20.6573C0.805643 14.3755 5.06211 5.87711 12.0468 0L43.0283 30.4753Z" fill="url(#paint0_radial_221_11)"/>
<path d="M124.243 52.6184C124.243 45.5781 129.96 39.8708 137.012 39.8708H377.731C384.783 39.8708 390.5 45.5781 390.5 52.6184C390.5 59.6587 384.783 65.366 377.731 65.366H137.012C129.96 65.366 124.243 59.6587 124.243 52.6184Z" fill="url(#paint1_radial_221_11)"/>
<path d="M178.158 106.442C178.158 99.4014 183.875 93.6941 190.928 93.6941H445.231C452.283 93.6941 458 99.4014 458 106.442C458 113.482 452.283 119.189 445.231 119.189H190.928C183.875 119.189 178.158 113.482 178.158 106.442Z" fill="url(#paint2_radial_221_11)"/>
<path d="M178.158 160.265C178.158 153.225 183.875 147.517 190.928 147.517H445.231C452.283 147.517 458 153.225 458 160.265C458 167.305 452.283 173.013 445.231 173.013H190.928C183.875 173.013 178.158 167.305 178.158 160.265Z" fill="url(#paint3_radial_221_11)"/>
<path d="M117.149 201.341H377.731C384.783 201.341 390.5 207.048 390.5 214.088C390.5 221.129 384.783 226.836 377.731 226.836H117.149C110.097 226.836 104.38 221.129 104.38 214.088C104.38 207.048 110.097 201.341 117.149 201.341Z" fill="url(#paint4_radial_221_11)"/>
</g>
<defs>
<filter id="filter0_i_221_11" x="0" y="0" width="458" height="241" filterUnits="userSpaceOnUse" color-interpolation-filters="sRGB">
<feFlood flood-opacity="0" result="BackgroundImageFix"/>
<feBlend mode="normal" in="SourceGraphic" in2="BackgroundImageFix" result="shape"/>
<feColorMatrix in="SourceAlpha" type="matrix" values="0 0 0 0 0 0 0 0 0 0 0 0 0 0 0 0 0 0 127 0" result="hardAlpha"/>
<feOffset/>
<feGaussianBlur stdDeviation="2.5"/>
<feComposite in2="hardAlpha" operator="arithmetic" k2="-1" k3="1"/>
<feColorMatrix type="matrix" values="0 0 0 0 0 0 0 0 0 0 0 0 0 0 0 0 0 0 0.25 0"/>
<feBlend mode="normal" in2="shape" result="effect1_innerShadow_221_11"/>
</filter>
<radialGradient id="paint0_radial_221_11" cx="0" cy="0" r="1" gradientUnits="userSpaceOnUse" gradientTransform="translate(458 330.5) rotate(-145.311) scale(580.721 1283.46)">
<stop stop-color="#00C2FF" stop-opacity="0.1"/>
<stop stop-opacity="0.2"/>
<stop offset="1" stop-color="#6FDCFF" stop-opacity="0.13"/>
</radialGradient>
<radialGradient id="paint1_radial_221_11" cx="0" cy="0" r="1" gradientUnits="userSpaceOnUse" gradientTransform="translate(458 330.5) rotate(-145.311) scale(580.721 1283.46)">
<stop stop-color="#00C2FF" stop-opacity="0.1"/>
<stop stop-opacity="0.2"/>
<stop offset="1" stop-color="#6FDCFF" stop-opacity="0.13"/>
</radialGradient>
<radialGradient id="paint2_radial_221_11" cx="0" cy="0" r="1" gradientUnits="userSpaceOnUse" gradientTransform="translate(458 330.5) rotate(-145.311) scale(580.721 1283.46)">
<stop stop-color="#00C2FF" stop-opacity="0.1"/>
<stop stop-opacity="0.2"/>
<stop offset="1" stop-color="#6FDCFF" stop-opacity="0.13"/>
</radialGradient>
<radialGradient id="paint3_radial_221_11" cx="0" cy="0" r="1" gradientUnits="userSpaceOnUse" gradientTransform="translate(458 330.5) rotate(-145.311) scale(580.721 1283.46)">
<stop stop-color="#00C2FF" stop-opacity="0.1"/>
<stop stop-opacity="0.2"/>
<stop offset="1" stop-color="#6FDCFF" stop-opacity="0.13"/>
</radialGradient>
<radialGradient id="paint4_radial_221_11" cx="0" cy="0" r="1" gradientUnits="userSpaceOnUse" gradientTransform="translate(458 330.5) rotate(-145.311) scale(580.721 1283.46)">
<stop stop-color="#00C2FF" stop-opacity="0.1"/>
<stop stop-opacity="0.2"/>
<stop offset="1" stop-color="#6FDCFF" stop-opacity="0.13"/>
</radialGradient>
</defs>
</svg>
