<svg width="100" height="100" viewBox="0 0 100 100" fill="none" xmlns="http://www.w3.org/2000/svg">
	<path d="M0 12.5C0 5.59644 5.59644 0 12.5 0H87.5C94.4036 0 100 5.59644 100 12.5V87.5C100 94.4036 94.4036 100 87.5 100H12.5C5.59644 100 0 94.4036 0 87.5V12.5Z" fill="url(#paint0_radial_182_5)"/>
	<path d="M15.3795 13.6833C17.159 13.0748 19.0735 12.9796 20.9044 13.4086C22.7354 13.8376 24.409 14.7734 25.7344 16.1094C27.0597 17.4453 27.9833 19.1275 28.3999 20.964C28.8164 22.8004 28.709 24.7172 28.09 26.4955L42.6293 41.0652C44.7803 40.3067 47.1252 40.3044 49.2777 41.0587C51.4302 41.813 53.2621 43.2789 54.4717 45.2152C55.6813 47.1514 56.1965 49.4425 55.9325 51.7111C55.6685 53.9797 54.6409 56.0907 53.0191 57.6964C51.3773 59.3508 49.2128 60.383 46.8955 60.6167C44.5782 60.8503 42.2517 60.271 40.3136 58.9775C38.3754 57.6841 36.9457 55.7568 36.2688 53.5249C35.5918 51.293 35.7096 48.8949 36.602 46.7403L23.0468 33.1562V68.907C25.1072 69.9284 26.7558 71.6263 27.7179 73.7175C28.6799 75.8088 28.8972 78.1671 28.3336 80.3993C27.7701 82.6316 26.4596 84.603 24.6207 85.9849C22.7818 87.3668 20.5255 88.0758 18.228 87.9936C15.9304 87.9114 13.7304 87.0431 11.9946 85.5333C10.2588 84.0235 9.09209 81.9635 8.68894 79.6967C8.28578 77.4298 8.67054 75.0931 9.77908 73.0759C10.8876 71.0587 12.653 69.483 14.7809 68.6113V32.532C13.5532 32.0281 12.4372 31.2859 11.4973 30.3481C10.5574 29.4103 9.81207 28.2954 9.30438 27.0678C8.79669 25.8401 8.53664 24.524 8.53922 23.1952C8.54181 21.8664 8.80697 20.5513 9.31944 19.3256L0.216087 10.2175C0.5 8 2 5 4.46143 2.92534L15.3795 13.6833Z" fill="#00C2FF"/>
	<path d="M44 21.5C44 19.0147 46.0147 17 48.5 17H84.5C86.9853 17 89 19.0147 89 21.5C89 23.9853 86.9853 26 84.5 26H48.5C46.0147 26 44 23.9853 44 21.5Z" fill="#00C2FF"/>
	<path d="M63 40.5C63 38.0147 65.0147 36 67.5 36H84.5C86.9853 36 89 38.0147 89 40.5C89 42.9853 86.9853 45 84.5 45H67.5C65.0147 45 63 42.9853 63 40.5Z" fill="#00C2FF"/>
	<path d="M63 59.5C63 57.0147 65.0147 55 67.5 55H84.5C86.9853 55 89 57.0147 89 59.5C89 61.9853 86.9853 64 84.5 64H67.5C65.0147 64 63 61.9853 63 59.5Z" fill="#00C2FF"/>
	<path d="M37 78.5C37 76.0147 39.0147 74 41.5 74H84.5C86.9853 74 89 76.0147 89 78.5C89 80.9853 86.9853 83 84.5 83H41.5C39.0147 83 37 80.9853 37 78.5Z" fill="#00C2FF"/>
	<defs>
		<radialGradient id="paint0_radial_182_5" cx="0" cy="0" r="1" gradientUnits="userSpaceOnUse" gradientTransform="translate(105.126 105.062) rotate(-135.318) scale(152.968 224.788)">
			<stop stop-color="#081C24"/>
			<stop offset="1" stop-color="#0A0A0A"/>
		</radialGradient>
	</defs>
</svg>