<svg width="159" height="41" viewBox="0 0 159 41" fill="none" xmlns="http://www.w3.org/2000/svg">
<path d="M63.984 34.0427C63.6498 34.0817 63.3607 33.9402 63.1167 33.6184C62.8728 33.2966 62.7534 33.0233 62.7585 32.7986C62.759 32.4993 62.8169 32.0657 62.9321 31.4977C63.0473 30.9297 63.1805 30.3512 63.3318 29.7623C63.4831 29.1734 63.6231 28.7067 63.7519 28.3623C63.8083 28.0597 63.8577 27.7949 63.9001 27.5679C63.9599 27.3212 63.9969 27.16 64.011 27.0843C64.0624 27.0064 64.1344 26.8057 64.227 26.4821C64.3382 26.1575 64.422 25.8438 64.4785 25.5412C64.5067 25.3899 64.5643 25.1059 64.6513 24.6892C64.7557 24.2527 64.8748 23.7499 65.0087 23.1808C65.1611 22.6105 65.3048 22.0501 65.4397 21.4996C65.5933 20.948 65.7229 20.4633 65.8284 20.0454C65.934 19.6276 66.0015 19.3524 66.0308 19.2197C66.1664 18.9871 66.2652 18.766 66.3273 18.5565C66.3894 18.3471 66.4275 18.2045 66.4416 18.1288C66.5489 18.0475 66.6084 17.9504 66.6203 17.8375C66.631 17.7059 66.6341 17.6029 66.6296 17.5283C66.624 17.4352 66.6474 17.359 66.6999 17.2997C66.771 17.2393 66.8044 17.1718 66.7998 17.0973C66.871 17.0368 66.917 17.0247 66.9379 17.0608C66.9588 17.097 67.013 17.0656 67.1005 16.9668L67.1826 16.0081L69.6684 15.8294C69.6447 16.0552 69.6057 16.3381 69.5515 16.678C69.4962 16.9993 69.3451 17.4385 69.0984 17.9958C69.0278 18.3741 68.9364 18.7163 68.824 19.0223C68.7303 19.3272 68.6956 19.5257 68.7199 19.6177C68.6849 19.6572 68.6123 19.8486 68.5022 20.1919C68.4107 20.5341 68.2958 20.9525 68.1575 21.4471C68.0378 21.9406 67.9088 22.4346 67.7705 22.9292C67.6508 23.4227 67.537 23.8597 67.4292 24.2403C67.3389 24.6011 67.2779 24.8292 67.2463 24.9246C67.1153 25.2317 66.9741 25.6798 66.8228 26.2687C66.6715 26.8576 66.4395 27.6571 66.1267 28.6672C65.9957 28.9743 65.8365 29.4328 65.649 30.0426C65.4802 30.6513 65.3453 31.2018 65.2442 31.6941C65.0833 32.4332 64.9286 32.9662 64.7801 33.2931C64.6503 33.6189 64.5218 33.8137 64.3948 33.8775C64.2689 33.96 64.1319 34.015 63.984 34.0427ZM63.2393 17.5936C62.4799 17.7144 61.9526 17.6529 61.6573 17.409C61.3806 17.164 61.2705 16.8901 61.327 16.5875C61.3693 16.3605 61.4884 16.1663 61.6844 16.0048C61.8978 15.8235 62.2899 15.6595 62.8607 15.5127C63.0634 15.463 63.3215 15.4006 63.6348 15.3255C63.9668 15.2493 64.2802 15.1742 64.5749 15.1002C65.1853 14.9884 65.6844 14.8927 66.0723 14.8131C66.4788 14.7323 66.8952 14.6604 67.3215 14.5971C67.7478 14.5339 68.2859 14.4638 68.9358 14.387C69.4738 14.317 69.9286 14.2614 70.3002 14.2202C70.6892 14.1592 70.8837 14.1287 70.8837 14.1287C70.9396 14.1253 71.1364 14.1321 71.474 14.149C71.8116 14.166 72.1778 14.1905 72.5725 14.2227C72.9671 14.2549 73.2599 14.3026 73.4507 14.3658C73.8849 14.433 74.2398 14.5798 74.5153 14.8062C74.7909 15.0326 74.9755 15.3019 75.0692 15.6142C75.1387 15.8344 75.1494 16.0114 75.1014 16.1452C75.0523 16.2604 74.9555 16.3598 74.8109 16.4433C74.3903 16.5997 74.0431 16.733 73.7692 16.8431C73.5129 16.9334 73.2515 16.9399 72.985 16.8626C72.8862 16.7751 72.7693 16.698 72.6343 16.6314C72.518 16.5636 72.3097 16.5201 72.0093 16.5009C71.7264 16.462 71.2764 16.4425 70.6593 16.4425C70.141 16.5301 69.6862 16.5857 69.2949 16.6094C68.9036 16.6331 68.7108 16.6916 68.7164 16.7847L67.0725 16.9685L65.7115 17.1913C65.5263 17.2212 65.2672 17.265 64.934 17.3226C64.5998 17.3615 64.2754 17.4092 63.9609 17.4657C63.6453 17.5035 63.4048 17.5462 63.2393 17.5936ZM74.8008 30.8343C74.6715 30.8608 74.5196 30.8233 74.3451 30.7217C74.1882 30.6003 74.0417 30.497 73.9056 30.4117C73.7057 30.1994 73.5634 30.0117 73.4787 29.8485C73.394 29.6853 73.3455 29.5013 73.333 29.2963C73.3206 29.0913 73.3246 28.848 73.3449 28.5662C73.42 28.2625 73.5075 27.8551 73.6074 27.3441C73.7074 26.8331 73.833 26.2832 73.9843 25.6943C74.008 25.4684 74.0574 25.2036 74.1325 24.8999C74.2251 24.5763 74.3188 24.2714 74.4137 23.9852C74.5074 23.6803 74.5777 23.4516 74.6245 23.2992C74.7267 22.8254 74.83 22.3704 74.9345 21.9339C75.0576 21.4963 75.2046 20.9918 75.3757 20.4204C75.5468 19.849 75.7554 19.1258 76.0016 18.2506C76.3437 17.1078 76.6003 16.2507 76.7714 15.6793C76.9425 15.1079 77.0672 14.6983 77.1457 14.4504C77.2242 14.2025 77.2776 14.0029 77.3058 13.8516C77.2968 13.7026 77.3908 13.5566 77.5878 13.4137C77.8024 13.2511 77.9935 13.1647 78.1612 13.1546C78.4232 13.1574 78.6843 13.3005 78.9446 13.584C79.2038 13.8488 79.3923 14.1833 79.5104 14.5876C79.6272 14.9732 79.5852 15.3591 79.3842 15.7453C79.1267 16.4342 78.8743 17.2068 78.6271 18.0634C78.3973 18.9002 78.1675 19.7369 77.9377 20.5737C77.7079 21.4105 77.4742 22.182 77.2365 22.8884C77.2235 22.9827 77.1679 23.145 77.0696 23.3754C76.99 23.6046 76.9175 23.796 76.852 23.9496C76.7865 24.1032 76.7204 24.2474 76.6538 24.3824C76.6058 24.5162 76.5818 24.5831 76.5818 24.5831C76.5699 24.696 76.5423 24.8566 76.4988 25.065C76.4553 25.2733 76.4102 25.4537 76.3633 25.6062C76.3503 25.7005 76.3297 25.8233 76.3015 25.9746C76.2733 26.1259 76.2543 26.2767 76.2447 26.4269C76.3311 26.3094 76.4537 26.1711 76.6123 26.0119C76.7698 25.834 76.9717 25.6161 77.2179 25.358C77.5002 25.0791 77.7475 24.8397 77.9598 24.6398C78.1721 24.4399 78.3855 24.2587 78.6 24.0961C78.796 23.9346 78.9738 23.7835 79.1336 23.643C79.312 23.5012 79.4012 23.4304 79.4012 23.4304C79.4351 23.3722 79.4684 23.3047 79.5012 23.228C79.5525 23.15 79.6056 23.1001 79.6604 23.078C79.6954 23.0385 79.7578 22.988 79.8475 22.9264C79.9362 22.8463 80.0248 22.7661 80.1135 22.6859C80.2744 22.564 80.4458 22.4601 80.6276 22.3742C80.8094 22.2884 81.0016 22.2207 81.2043 22.171C81.407 22.1213 81.6015 22.0908 81.7879 22.0795C82.0114 22.0659 82.25 22.145 82.5035 22.3166C82.7559 22.4696 82.9942 22.6983 83.2183 23.0026C83.4193 23.2335 83.5486 23.5156 83.6062 23.8487C83.6813 24.1621 83.7166 24.59 83.7121 25.1326C83.7212 25.2817 83.6915 25.564 83.6232 25.9796C83.5735 26.394 83.5363 26.7048 83.5114 26.9121L83.3175 27.8776L83.5411 27.864C83.7415 27.777 83.9366 27.7559 84.1263 27.8005C84.3347 27.8439 84.4388 27.8657 84.4388 27.8657C84.5354 27.9159 84.6232 27.9761 84.7022 28.0461C84.7999 28.115 84.8871 28.1658 84.9639 28.1985C85.0848 28.3408 85.0791 28.5562 84.947 28.8447C84.8149 29.1333 84.659 29.3391 84.4795 29.4621C84.0504 29.7874 83.6611 29.998 83.3116 30.094C82.9807 30.1888 82.6228 30.1451 82.2377 29.9627C81.869 29.742 81.6093 29.4678 81.4585 29.1404C81.3264 28.8117 81.2521 28.3581 81.2357 27.7793C81.2606 26.955 81.2716 26.3652 81.2687 26.0101C81.2648 25.6363 81.1603 25.4556 80.9554 25.4681C80.7318 25.4816 80.4311 25.6121 80.0534 25.8594C79.6932 26.0869 79.2914 26.4011 78.8482 26.802C78.4039 27.1843 77.9623 27.6131 77.5236 28.0885C77.1024 28.5442 76.7284 29.0063 76.4015 29.475C76.1948 29.768 75.9695 30.0622 75.7256 30.3575C75.4806 30.6341 75.1723 30.7931 74.8008 30.8343ZM87.6205 30.5341C87.5369 30.3895 87.3602 30.2506 87.0903 30.1174C86.839 29.983 86.7112 29.8785 86.7066 29.804C86.7021 29.7295 86.6488 29.6205 86.5466 29.4771C86.4619 29.3139 86.38 29.1973 86.301 29.1273C86.201 29.0212 86.2126 28.7493 86.3357 28.3117C86.4576 27.8555 86.6485 27.3016 86.9082 26.65C87.1679 25.9985 87.455 25.3359 87.7695 24.6623C87.9095 24.5042 88.0467 24.2995 88.1811 24.0483C88.3154 23.797 88.4176 23.6318 88.4877 23.5528C88.4831 23.4783 88.5071 23.4114 88.5596 23.3521C88.611 23.2742 88.674 23.2329 88.7485 23.2284L88.945 22.7677C88.9777 22.6909 89.0805 22.5351 89.2533 22.3002C89.4447 22.0642 89.6722 21.8073 89.9359 21.5295C90.1984 21.233 90.4621 20.9552 90.7269 20.6961C91.0103 20.4358 91.2418 20.2441 91.4214 20.121C91.7968 19.8364 92.1901 19.691 92.6011 19.6848C93.0308 19.6775 93.4021 19.7859 93.7149 20.01C93.7741 20.0625 93.902 20.167 94.0985 20.3234C94.3136 20.4786 94.5485 20.6514 94.8032 20.8417C95.0765 21.0308 95.3113 21.2036 95.5078 21.36L96.5978 22.2196L96.2074 23.6459C96.0104 24.4058 95.9847 25.0619 96.1304 25.6141C96.2761 26.1663 96.4824 26.64 96.7495 27.0353C96.8551 27.2346 96.9858 27.3856 97.1416 27.4884C97.3161 27.59 97.5349 27.6515 97.798 27.673C97.9482 27.6826 98.0913 27.73 98.2274 27.8153C98.3635 27.9005 98.4377 28.0456 98.4502 28.2506C98.4773 28.6978 98.4132 29.0289 98.2579 29.244C98.1202 29.4394 97.9592 29.5614 97.7752 29.6099C97.1648 29.7217 96.5739 29.6921 96.0025 29.521C95.4312 29.3499 94.8959 28.8494 94.3967 28.0194C94.3154 27.9122 94.2005 27.7134 94.052 27.4232C93.921 27.1132 93.8434 26.9122 93.8191 26.8202C93.7502 26.9179 93.6551 27.0452 93.5337 27.2022C93.4298 27.3394 93.3254 27.4672 93.2204 27.5858C91.9788 29.0075 90.8953 29.9522 89.9699 30.4197C89.062 30.8674 88.2788 30.9056 87.6205 30.5341ZM89.017 28.1211C89.1486 28.1319 89.3496 28.0542 89.6201 27.8882C89.8894 27.7036 90.2457 27.4108 90.6889 27.0099C91.2896 26.4312 91.7842 25.9524 92.1727 25.5735C92.5611 25.1947 92.9341 24.7139 93.2915 24.1312L93.8453 23.0878C93.633 22.6705 93.4484 22.4012 93.2914 22.2798C93.1345 22.1584 92.9814 22.1022 92.8324 22.1113C92.5902 22.1259 92.311 22.3018 91.9948 22.6389C91.6775 22.9574 91.3226 23.4277 90.9302 24.0499C90.5553 24.6524 90.1335 25.4073 89.6649 26.3146C89.4476 26.7392 89.2855 27.1511 89.1788 27.5503C89.071 27.9309 89.017 28.1211 89.017 28.1211ZM103.102 30.353C102.837 30.2942 102.568 30.1796 102.296 30.0091C102.024 29.8386 101.74 29.6407 101.446 29.4154C101.205 29.1309 101.03 28.8703 100.922 28.6337C100.813 28.3785 100.739 28.0838 100.7 27.7495C100.679 27.3955 100.651 26.9483 100.619 26.408C100.605 26.1844 100.623 25.8654 100.673 25.451C100.741 25.0354 100.808 24.6012 100.874 24.1484C100.959 23.6944 101.038 23.2969 101.111 22.9559C101.182 22.5962 101.224 22.3599 101.236 22.247C101.277 22.0014 101.176 21.8673 100.931 21.8447C100.687 21.8221 100.416 21.8292 100.119 21.8659C99.8395 21.8829 99.6515 21.8662 99.5549 21.8159C99.4793 21.8018 99.4364 21.7109 99.4262 21.5432C99.4149 21.3569 99.4093 21.2638 99.4093 21.2638C99.4047 21.1892 99.3646 21.1449 99.289 21.1308C99.2122 21.098 99.143 21.0368 99.0815 20.947C99.0397 20.8747 99.0778 20.7322 99.1958 20.5193C99.3138 20.3064 99.4742 20.1752 99.6769 20.1255C99.8423 20.078 100.092 20.0348 100.426 19.9959C100.76 19.9383 101.091 19.8527 101.421 19.7392C101.768 19.606 102.028 19.4219 102.201 19.187C102.344 18.767 102.503 18.3178 102.68 17.8396C102.856 17.3427 103.026 16.9116 103.191 16.5463C103.354 16.1624 103.471 15.9215 103.54 15.8239C103.846 15.637 104.168 15.552 104.506 15.5689C104.843 15.5672 105.113 15.7098 105.317 15.9966C105.418 16.1214 105.499 16.21 105.558 16.2625C105.636 16.3139 105.669 16.3961 105.657 16.509C105.664 16.6208 105.602 16.8303 105.471 17.1374C105.357 17.4248 105.16 17.8762 104.88 18.4917C104.798 18.6836 104.724 18.8564 104.658 19.01C104.592 19.1449 104.559 19.2124 104.559 19.2124C104.634 19.2265 104.747 19.2291 104.896 19.22C105.045 19.211 105.23 19.1904 105.453 19.1582C105.656 19.1085 105.878 19.067 106.119 19.0337C106.359 18.9817 106.573 18.9688 106.761 18.9947C107.19 18.9687 107.514 19.0707 107.734 19.3005C107.953 19.5303 108.084 19.8309 108.125 20.2024C108.175 20.4051 108.111 20.5867 107.934 20.747C107.756 20.9074 107.416 21.0028 106.913 21.0333C106.745 21.0435 106.504 21.0675 106.188 21.1053C105.872 21.1431 105.548 21.1815 105.213 21.2205C104.879 21.2594 104.592 21.3049 104.352 21.3568C104.129 21.389 104.019 21.4238 104.022 21.461C103.968 21.5017 103.884 21.6564 103.769 21.9251C103.672 22.1741 103.569 22.4796 103.46 22.8415C103.37 23.2023 103.288 23.5439 103.214 23.8663C103.122 24.5077 103.066 25.1282 103.046 25.7279C103.026 26.3275 103.049 26.8498 103.113 27.2947C103.195 27.7199 103.325 28.0205 103.504 28.1967C103.682 28.3542 103.934 28.339 104.259 28.1509C104.602 27.9431 104.915 27.7091 105.198 27.4488C105.517 27.149 105.8 27.0476 106.049 27.1447C106.297 27.2232 106.459 27.4191 106.534 27.7325C106.626 28.0261 106.562 28.3573 106.341 28.726C106.139 29.0935 105.841 29.4109 105.445 29.6779C105.05 29.945 104.641 30.1381 104.218 30.2572C103.796 30.395 103.424 30.4269 103.102 30.353ZM111.274 17.515C111.088 17.5449 110.856 17.559 110.575 17.5573C110.313 17.5545 110.144 17.3871 110.068 17.0551C110.041 16.9258 110.052 16.8036 110.102 16.6884C110.151 16.5732 110.218 16.4476 110.303 16.3115C110.504 15.9253 110.731 15.5001 110.983 15.036C111.254 14.5708 111.428 14.1956 111.504 13.9104C111.499 13.8359 111.505 13.7701 111.52 13.7131C111.207 13.7882 110.874 13.6962 110.522 13.437C110.147 13.1231 110.018 12.6914 110.134 12.1421C110.268 11.5729 110.567 11.106 111.031 10.7412C111.354 10.5159 111.664 10.3849 111.961 10.3482C112.258 10.3115 112.579 10.3576 112.923 10.4863C113.251 10.6534 113.53 10.9264 113.759 11.3053C113.986 11.6655 114.061 11.9695 113.982 12.2174C113.952 12.6493 113.874 13.0561 113.748 13.4378C113.64 13.8184 113.541 14.1891 113.45 14.5498C113.363 14.9665 113.157 15.4185 112.831 15.9058C112.523 16.3733 112.222 16.803 111.928 17.1948C111.951 17.2682 111.898 17.3182 111.768 17.3447C111.639 17.3713 111.474 17.428 111.274 17.515ZM113.478 29.724C112.828 29.5015 112.346 29.2596 112.031 28.9982C111.734 28.717 111.606 28.4629 111.648 28.236C111.679 28.1219 111.738 28.0155 111.825 27.9167C111.913 27.8179 112.116 27.7682 112.433 27.7676C112.769 27.7473 113.286 27.8001 113.986 27.926C114.191 27.9135 114.395 27.8918 114.599 27.8607C114.803 27.8297 114.987 27.7904 115.153 27.743C115.337 27.6944 115.483 27.6388 115.592 27.5761C115.683 27.5332 115.708 27.485 115.667 27.4313C115.625 27.3591 115.555 27.2885 115.458 27.2196C115.378 27.1309 115.29 27.0801 115.196 27.0671C115.101 27.0355 115.016 27.022 114.941 27.0265C114.898 26.9356 114.809 26.8475 114.673 26.7623C114.555 26.6759 114.409 26.5819 114.235 26.4802C113.805 26.1697 113.414 25.8942 113.063 25.6536C112.711 25.4131 112.569 25.2254 112.636 25.0904C112.631 25.0159 112.629 24.9786 112.629 24.9786C112.628 24.96 112.627 24.9507 112.627 24.9507C112.497 24.9586 112.365 24.7889 112.232 24.4417C112.097 24.0758 112.021 23.7438 112.003 23.4457C111.981 23.0731 112.032 22.6959 112.159 22.3142C112.304 21.9314 112.488 21.565 112.709 21.2149C112.95 20.8637 113.193 20.5498 113.438 20.2731C113.771 19.9162 114.124 19.5676 114.496 19.2271C114.886 18.8669 115.306 18.5422 115.756 18.2531C116.224 17.9629 116.743 17.7258 117.312 17.5417C117.569 17.47 117.866 17.424 118.201 17.4036C118.536 17.3833 118.781 17.4152 118.936 17.4993C119.079 17.3971 119.267 17.4138 119.5 17.5493C119.732 17.6662 119.966 17.8389 120.205 18.0676C120.443 18.2963 120.625 18.5283 120.752 18.7638C120.765 18.9874 120.773 19.2674 120.775 19.6039C120.794 19.9207 120.792 20.2013 120.77 20.4458C120.747 20.6902 120.671 20.8164 120.54 20.8243C120.54 20.8243 120.513 20.8354 120.458 20.8574C120.421 20.8596 120.405 20.9073 120.411 21.0005C120.422 21.1868 120.295 21.4096 120.03 21.6687C119.691 21.9324 119.367 22.1484 119.06 22.3167C118.752 22.4849 118.51 22.5089 118.335 22.3887C118.218 22.3209 118.111 22.2526 118.014 22.1837C117.916 22.1148 117.827 22.0267 117.745 21.9195C117.745 21.9195 117.715 21.8839 117.655 21.8128C117.612 21.7219 117.588 21.6391 117.584 21.5646C117.579 21.4901 117.603 21.4232 117.656 21.3639C117.707 21.286 117.733 21.247 117.733 21.247C117.979 20.989 118.161 20.7535 118.279 20.5407C118.415 20.3267 118.507 20.1434 118.554 19.991C118.6 19.8199 118.62 19.6878 118.614 19.5946C118.607 19.4828 118.576 19.4193 118.519 19.4041C118.479 19.3691 118.385 19.3561 118.236 19.3651C118.142 19.3708 117.942 19.4577 117.634 19.626C117.345 19.7931 117.04 19.9986 116.718 20.2426C116.395 20.4678 116.145 20.67 115.969 20.849C115.903 20.9839 115.852 21.0712 115.817 21.1107C115.8 21.1491 115.755 21.1705 115.68 21.175C115.676 21.1005 115.63 21.1127 115.542 21.2115C115.455 21.3103 115.351 21.4475 115.231 21.6231C115.111 21.7987 114.991 21.9836 114.872 22.1778C114.753 22.3721 114.659 22.5273 114.591 22.6436C114.583 22.8125 114.546 22.9737 114.48 23.1272C114.432 23.261 114.422 23.4019 114.45 23.5499C114.48 23.735 114.584 23.9064 114.762 24.0639C114.939 24.2215 115.195 24.4211 115.527 24.6627C116.209 25.1076 116.716 25.4602 117.05 25.7205C117.402 25.9797 117.649 26.1891 117.789 26.3489C117.93 26.5087 118.024 26.6713 118.071 26.8367C118.423 27.3951 118.491 27.896 118.275 28.3392C118.057 28.7638 117.704 29.1031 117.214 29.3572C117.034 29.4617 116.713 29.5653 116.251 29.6681C115.791 29.7895 115.3 29.8567 114.777 29.8696C114.274 29.9001 113.841 29.8516 113.478 29.724ZM128.067 35.8805C127.662 35.9799 127.383 36.0061 127.231 35.9593C127.078 35.9124 126.867 35.8317 126.599 35.717C126.385 35.5804 126.229 35.4777 126.131 35.4088C126.034 35.3399 125.964 35.2693 125.922 35.197C125.712 34.8171 125.667 34.5299 125.786 34.3357C125.905 34.1415 126.084 34.0091 126.323 33.9385C126.581 33.8854 126.804 33.8532 126.99 33.8419C127.125 33.9086 127.341 33.9328 127.64 33.9148C127.956 33.8956 128.15 33.8464 128.22 33.7674C128.22 33.7674 128.3 33.7064 128.461 33.5844C128.642 33.48 128.879 33.3908 129.174 33.3168C129.735 33.0023 130.174 32.6858 130.491 32.3674C130.81 32.0676 131.153 31.5605 131.521 30.8463C131.673 30.5753 131.831 30.2571 131.996 29.8918C132.162 29.5451 132.272 29.2018 132.326 28.8619C132.453 28.4802 132.59 27.967 132.738 27.3222C132.905 26.6763 133.044 26.0413 133.156 25.4174C133.266 24.7749 133.321 24.2947 133.321 23.9768C133.369 22.9266 133.522 21.9075 133.78 20.9194C134.037 19.9127 134.226 18.854 134.345 17.7434C134.441 17.4757 134.516 17.3216 134.57 17.2809C134.622 17.2217 134.742 17.1864 134.928 17.1751C135.133 17.1627 135.379 17.2132 135.667 17.3267C135.953 17.4215 136.167 17.5675 136.31 17.7645C136.518 18.1072 136.627 18.5214 136.638 19.007C136.666 19.4728 136.57 19.89 136.349 20.2587C136.179 20.5309 136.036 20.951 135.921 21.519C135.823 22.0672 135.734 22.7552 135.653 23.5829C135.585 23.9985 135.512 24.4892 135.434 25.0549C135.373 25.6009 135.308 26.2127 135.236 26.8902C135.173 27.0811 135.088 27.3761 134.982 27.7753C134.874 28.1558 134.808 28.459 134.784 28.6849C134.77 28.7605 134.723 28.913 134.644 29.1422C134.564 29.3715 134.484 29.5914 134.403 29.802C134.323 30.0312 134.267 30.1842 134.235 30.261C133.45 32.1226 132.495 33.4895 131.369 34.3619C130.263 35.2331 129.162 35.7393 128.067 35.8805ZM129.936 27.8287C129.731 27.8411 129.51 27.7423 129.272 27.5323C129.054 27.3211 128.903 27.1526 128.821 27.0267C128.735 26.8449 128.585 26.6763 128.37 26.521C128.154 26.3658 127.965 26.1716 127.801 25.9384C127.637 25.7052 127.582 25.4093 127.635 25.0508C127.695 24.804 127.785 24.4339 127.905 23.9405C128.023 23.4283 128.167 22.868 128.336 22.2593C128.503 21.632 128.672 21.014 128.84 20.4054C129.028 19.7956 129.201 19.2521 129.359 18.775C129.517 18.2979 129.655 17.9622 129.774 17.768C129.877 17.6122 130.047 17.4896 130.285 17.4004C130.523 17.3112 130.764 17.2779 131.008 17.3005C131.253 17.3231 131.437 17.4241 131.56 17.6037C131.781 17.8521 131.908 18.1062 131.943 18.3659C131.995 18.6059 131.888 19.0051 131.622 19.5635C131.56 19.7729 131.481 20.0022 131.384 20.2512C131.285 20.4815 131.239 20.634 131.243 20.7085C131.227 20.7469 131.197 20.8796 131.155 21.1066C131.13 21.3138 131.095 21.5123 131.051 21.702C131.006 21.8917 130.956 21.9882 130.9 21.9916C130.83 22.0707 130.758 22.2714 130.684 22.5938C130.629 22.9151 130.576 23.2736 130.525 23.6694C130.492 24.0454 130.475 24.3831 130.474 24.6823C130.472 24.9629 130.509 25.101 130.583 25.0965C131.161 25.0615 131.709 24.8506 132.228 24.4638C132.746 24.0584 133.296 23.4079 133.877 22.5124L134.288 25.1244C134.035 25.2706 133.801 25.425 133.587 25.5877C133.371 25.7316 133.176 25.9024 133.001 26.1001C132.949 26.178 132.825 26.2884 132.628 26.4312C132.431 26.5741 132.233 26.7076 132.035 26.8318C131.854 26.9363 131.736 26.9902 131.68 26.9936C131.68 26.9936 131.653 27.0046 131.598 27.0266C131.561 27.0289 131.544 27.0673 131.549 27.1418C131.551 27.1791 131.435 27.2609 131.199 27.3874C130.963 27.4953 130.716 27.5944 130.46 27.6847C130.203 27.775 130.029 27.823 129.936 27.8287ZM139.94 27.7552C139.698 27.7699 139.5 27.7351 139.345 27.651C139.209 27.5658 139.033 27.4455 138.818 27.2902C138.442 26.939 138.128 26.5559 137.879 26.141C137.648 25.7248 137.551 25.3567 137.588 25.0366C137.634 24.8841 137.645 24.7432 137.618 24.6139C137.609 24.4649 137.604 24.3903 137.604 24.3903C137.506 24.3028 137.474 24.2486 137.51 24.2277C137.545 24.1882 137.579 24.1301 137.612 24.0533C137.724 24.0465 137.755 23.9418 137.705 23.7391C137.659 23.5923 137.696 23.2721 137.815 22.7786C137.953 22.2654 138.147 21.7767 138.4 21.3126C138.5 21.1195 138.653 20.8671 138.859 20.5554C139.063 20.2251 139.287 19.903 139.529 19.5891C139.79 19.2554 140.026 18.9886 140.238 18.7887C140.68 18.3692 141.09 18.0265 141.466 17.7605C141.862 17.4935 142.261 17.3009 142.666 17.1829C143.07 17.0649 143.486 16.9929 143.915 16.9669C144.362 16.9398 144.734 17.0668 145.032 17.348C145.472 17.5084 145.785 17.7418 145.972 18.0484C146.178 18.3539 146.324 18.7564 146.41 19.2561C146.5 19.8117 146.486 20.5045 146.368 21.3345C146.249 22.1459 145.848 23.1052 145.168 24.2124C144.742 24.9114 144.318 25.4608 143.893 25.8605C143.468 26.2603 142.996 26.6349 142.474 26.9844C142.099 27.269 141.689 27.4528 141.245 27.5358C140.802 27.6188 140.367 27.6919 139.94 27.7552ZM142.584 24.1726C142.973 23.7938 143.238 23.385 143.38 22.9463C143.54 22.5064 143.705 21.9915 143.875 21.4014C143.943 21.2851 143.978 21.096 143.981 20.834C144.002 20.5709 143.997 20.3188 143.963 20.0777C143.929 19.818 143.854 19.6729 143.74 19.6424C143.565 19.5221 143.395 19.5043 143.232 19.589C143.068 19.6551 142.861 19.7892 142.611 19.9913C142.081 20.491 141.592 21.063 141.145 21.7072C140.715 22.3317 140.433 23.0874 140.3 23.9745C140.273 24.4437 140.341 24.7949 140.504 25.028C140.686 25.2415 140.95 25.2909 141.299 25.1763C141.665 25.0419 142.093 24.7073 142.584 24.1726ZM154.979 27.2082C154.853 27.2906 154.675 27.2734 154.443 27.1565C154.23 27.0385 154.014 26.8553 153.793 26.6069C153.649 26.3912 153.533 26.1738 153.445 25.9548C153.374 25.7159 153.325 25.3636 153.296 24.8978C153.293 24.524 153.277 24.2725 153.251 24.1432C153.242 23.9941 153.157 23.9899 152.997 24.1305C152.855 24.2513 152.565 24.5494 152.126 25.0248C151.688 25.5189 151.266 25.9466 150.857 26.308C150.467 26.6496 150.14 26.8189 149.878 26.8161C149.748 26.824 149.566 26.7509 149.332 26.5968C149.098 26.4426 148.872 26.2507 148.652 26.0209C148.431 25.7724 148.267 25.5393 148.161 25.3213C148.022 24.8809 147.977 24.3039 148.028 23.5902C148.097 22.8754 148.229 22.1287 148.425 21.3501C148.62 20.5528 148.846 19.8098 149.103 19.1209C149.378 18.4123 149.652 17.844 149.926 17.416C150.216 16.9683 150.474 16.747 150.699 16.752C151.018 16.7701 151.298 16.9121 151.538 17.178C151.796 17.4242 152 17.7017 152.15 18.0106C152.232 18.1365 152.267 18.2466 152.254 18.3409C152.259 18.434 152.192 18.5503 152.051 18.6898C151.896 18.9236 151.711 19.262 151.495 19.7053C151.296 20.1287 151.09 20.59 150.878 21.0892C150.683 21.5872 150.507 22.0654 150.347 22.5239C150.206 22.9626 150.106 23.3239 150.048 23.608C149.991 23.892 149.999 24.0317 150.074 24.0272C150.335 24.0114 150.573 23.9315 150.789 23.7875C151.003 23.6249 151.269 23.375 151.585 23.0379C151.952 22.6229 152.273 22.2108 152.548 21.8014C152.821 21.3734 153.1 20.889 153.385 20.3481C153.605 19.9607 153.832 19.5356 154.065 19.0726C154.318 18.6085 154.476 18.281 154.539 18.0901C154.77 17.5899 154.944 17.2147 155.06 16.9646C155.175 16.7144 155.325 16.5558 155.508 16.4886C155.601 16.4829 155.731 16.475 155.899 16.4649C156.067 16.4547 156.151 16.4496 156.151 16.4496C156.263 16.4615 156.399 16.5374 156.557 16.6774C156.711 16.7429 156.866 16.8364 157.023 16.9578C157.198 17.078 157.289 17.1847 157.295 17.2779C157.231 17.4687 157.127 17.7556 156.982 18.1384C156.855 18.5014 156.759 18.7691 156.694 18.9413C156.389 19.7639 156.092 20.5767 155.804 21.3796C155.534 22.1627 155.348 22.9594 155.248 23.7696C155.226 24.0328 155.236 24.3408 155.276 24.6936C155.333 25.0268 155.404 25.2656 155.487 25.4101C155.55 25.5186 155.623 25.645 155.707 25.7896C155.808 25.9143 155.917 26.0199 156.035 26.1063C156.209 26.2079 156.208 26.3483 156.032 26.5272C155.875 26.7051 155.669 26.8671 155.416 27.0134C155.181 27.1399 155.035 27.2048 154.979 27.2082Z" fill="#E0E0E0"/>
<path d="M51.1428 26.0721C51.7347 25.7169 51.9267 24.9491 51.5715 24.3571C51.2163 23.7652 50.4485 23.5732 49.8565 23.9284L51.1428 26.0721ZM24 27L24.2945 25.7852L24 27ZM5.95029 7.81033C5.29309 7.59896 4.58897 7.96037 4.37759 8.61757L0.933018 19.3273C0.721643 19.9845 1.08306 20.6886 1.74025 20.8999C2.39745 21.1113 3.10157 20.7499 3.31295 20.0927L6.37479 10.573L15.8945 13.6348C16.5517 13.8462 17.2558 13.4848 17.4672 12.8276C17.6786 12.1704 17.3172 11.4663 16.66 11.2549L5.95029 7.81033ZM50.4997 25.0002C49.8565 23.9284 49.857 23.9281 49.8575 23.9278C49.8576 23.9277 49.858 23.9275 49.8582 23.9274C49.8586 23.9271 49.8589 23.927 49.859 23.9269C49.8592 23.9268 49.8589 23.927 49.8579 23.9276C49.8559 23.9287 49.8516 23.9313 49.8448 23.9352C49.8313 23.943 49.8083 23.9561 49.7758 23.9742C49.7109 24.0103 49.6083 24.0659 49.4688 24.1372C49.1898 24.2798 48.7636 24.485 48.197 24.722C47.0637 25.1961 45.37 25.7969 43.1697 26.2791C38.7739 27.2425 32.3422 27.7361 24.2945 25.7852L23.7055 28.2148C32.1579 30.2638 38.976 29.7575 43.705 28.7211C46.0671 28.2034 47.9045 27.5543 49.1618 27.0284C49.7905 26.7654 50.2744 26.5331 50.6067 26.3633C50.7729 26.2783 50.9012 26.2089 50.9908 26.1591C51.0356 26.1342 51.0708 26.1142 51.0961 26.0995C51.1088 26.0922 51.119 26.0862 51.1268 26.0816C51.1307 26.0793 51.134 26.0774 51.1366 26.0758C51.138 26.075 51.1391 26.0743 51.1402 26.0737C51.1407 26.0734 51.1413 26.073 51.1416 26.0728C51.1422 26.0725 51.1428 26.0721 50.4997 25.0002ZM24.2945 25.7852C19.4776 24.6175 15.0929 20.4147 11.828 16.2719C10.2189 14.2301 8.92748 12.2622 8.03829 10.804C7.59424 10.0758 7.25189 9.47698 7.02174 9.0625C6.90669 8.85531 6.81977 8.69436 6.7623 8.58653C6.73356 8.53261 6.7122 8.49199 6.69836 8.46553C6.69144 8.4523 6.68641 8.44261 6.68328 8.43657C6.68171 8.43355 6.68062 8.43144 6.68001 8.43025C6.67971 8.42966 6.67952 8.4293 6.67946 8.42918C6.67942 8.42911 6.67947 8.42919 6.67945 8.42916C6.67952 8.4293 6.67962 8.42949 5.56756 9.0003C4.45549 9.5711 4.45565 9.57141 4.45585 9.57179C4.45595 9.57199 4.45617 9.57242 4.45638 9.57283C4.4568 9.57364 4.45734 9.57469 4.458 9.57597C4.45932 9.57853 4.46113 9.58203 4.46342 9.58645C4.46799 9.59528 4.47449 9.60779 4.48291 9.62388C4.49973 9.65606 4.52418 9.70253 4.55611 9.76243C4.61996 9.88222 4.71372 10.0558 4.83609 10.2761C5.08075 10.7168 5.44015 11.3452 5.90383 12.1056C6.8301 13.6246 8.17803 15.6794 9.86452 17.8194C13.1909 22.0401 18.0225 26.8372 23.7055 28.2148L24.2945 25.7852Z" fill="white"/>
</svg>
